<svg id="Camada_1" data-name="Camada 1" xmlns="http://www.w3.org/2000/svg" viewBox="0 0 500.16 419.32"><defs><style>.cls-1{fill:#f4a7b0;}.cls-2{fill:#fad9d6;}.cls-3{fill:#593f23;}.cls-4{fill:#422f1a;}.cls-5{fill:#aa83ba;}.cls-6{fill:#c89380;}.cls-7{fill:#e19286;opacity:0.2;}</style></defs><path class="cls-1" d="M23,365.76a449.71,449.71,0,0,1-2.7-60q.12-5.76.49-11.4c.16-2,.32-3.72.49-5a11.58,11.58,0,0,1,.37-2.21c.16-.65.32-1.27.49-1.84q3.18-4.17,5.39-4.78a9.07,9.07,0,0,1,7.48,1.1,14.57,14.57,0,0,1,2.82,2.09q2,1.83,4.91,5.15,4.29,5.14,11.28,14.47l9.81,13.36q2.45-2.94,7.36-9.68l8.58-11.78,2.82-4c.49-.57.86-1,1.1-1.35a5.07,5.07,0,0,0,.62-.74l.86-.86a7.36,7.36,0,0,1,1.35-.85,8.28,8.28,0,0,1,4.41-1q6.14.36,9.69,6.62a32,32,0,0,1,2.7,7.35,86.32,86.32,0,0,1,1.47,10.06q.86,9.69.12,27.84-.74,17.77,0,25.75a8.31,8.31,0,0,1-7.54,8.89,7.75,7.75,0,0,1-6-1.9,8.24,8.24,0,0,1-2.94-5.52q-.73-9.31,0-27.84.74-17.54-.12-25.75v-.49l-3.93,5.4q-5.76,7.85-9.56,12.26a53.43,53.43,0,0,1-4.17,4.54,16.93,16.93,0,0,1-2.58,2A9.89,9.89,0,0,1,62,337.19a8.59,8.59,0,0,1-4.54-2.08,3.21,3.21,0,0,1-.73-.74,3.16,3.16,0,0,1-.74-.73L54.8,332l-3.44-4.78-10.42-14.1-4.17-5.52a444.64,444.64,0,0,0,2.7,56.16,7.94,7.94,0,0,1-1.78,6.07,8.22,8.22,0,0,1-5.52,3.07,7.66,7.66,0,0,1-6-1.72A8.36,8.36,0,0,1,23,365.76Z"/><path class="cls-1" d="M163.07,368q-1.83.5-5.52,1.84-5.15,2.08-7.23,2.7-10.55,3.56-18.15,1.59a24.8,24.8,0,0,1-3.68-1.22c-1.14-.58-2.12-1.11-2.94-1.6a18.58,18.58,0,0,1-2.64-2c-.94-.82-1.65-1.47-2.14-2a17.45,17.45,0,0,1-1.84-2.33l-1.47-2c-.25-.33-.72-1.07-1.41-2.21S115,359.1,114.88,359a3.66,3.66,0,0,0-.61-.92c-.41-.53-.82-1.08-1.23-1.66l-1.23-2.2a19.35,19.35,0,0,1-1.28-2.58,22.06,22.06,0,0,1-.92-2.7q-2.7-10.66,4.9-23.17a46.73,46.73,0,0,1,7.67-9.57,25.45,25.45,0,0,1,9.75-6l2.2-.36H135a17.39,17.39,0,0,1,2.33-.13l6.5-.24q4.05-.12,6.62-.12h2.46a9.23,9.23,0,0,1,1.1.06,4.81,4.81,0,0,1,.86.18,6.16,6.16,0,0,1,2.82,1q4.78,2.7,6.74,9.44a35.27,35.27,0,0,1,1.23,9.69,34.68,34.68,0,0,1-1.23,9.57q-1.71,6.5-6,9.19a8.94,8.94,0,0,1-3.18,1.35,8.33,8.33,0,0,0-1.35.12h-1.72q-1.47-.12-4-.24l-10.67-1.1L127,347.37l1.84,2.82a54.76,54.76,0,0,0,4.17,6.13,6.79,6.79,0,0,0,3.31,1.84q2.82.73,8.83-1.23,1.71-.48,6.38-2.33,5-2,7.11-2.57a8.11,8.11,0,0,1,6.25.8A8.3,8.3,0,0,1,168,364.05,8.1,8.1,0,0,1,163.07,368Zm-26.24-41.81-2.7,2.08a18.46,18.46,0,0,0-3.43,3.07l8.58,1c4.17.41,7.4.73,9.69,1a25.72,25.72,0,0,0,.25-3.56,20.3,20.3,0,0,0-.37-3.92c-.82,0-2.37,0-4.66.12s-4.38.17-6.26.25Zm-.12,0h-.86a.71.71,0,0,0-.49.12q-.62,0,0,.24A1.79,1.79,0,0,0,136.71,326.16Zm15.94,7.35c.08.17.2.17.37,0Z"/><path class="cls-1" d="M230.39,288.76a144.35,144.35,0,0,0,.61,16.67q1.35,16.56,1.48,17.66.24,5,.36,14.16t.25,12.69c0,.17,0,.78.12,1.84s.14,2.25.19,3.56.06,2.5.06,3.56a46.89,46.89,0,0,1-.37,6.37q-.61,5.4-3.56,8.1-4.29,4.15-12.87,3.31a54.7,54.7,0,0,1-11.53-2.46q-12.87-3.8-18.52-7.72a26.52,26.52,0,0,1-8.7-9.44,25.76,25.76,0,0,1-3.07-10.55,28.31,28.31,0,0,1,1-10.18,33.83,33.83,0,0,1,4.23-8.95A36.35,36.35,0,0,1,190.54,317a32.15,32.15,0,0,1,13.61-5.21,24,24,0,0,1,11,.86q-.37-4.17-.49-5.89a156.66,156.66,0,0,1-.74-18.52,8.05,8.05,0,0,1,2.58-5.76,7.81,7.81,0,0,1,5.88-2.21,8.09,8.09,0,0,1,5.76,2.58A7.81,7.81,0,0,1,230.39,288.76ZM217,360.25V359c0-1.15,0-2.31-.07-3.5s-.1-2.26-.18-3.25-.12-1.59-.12-1.84q-.14-3.56-.19-10.11c0-4.37-.1-7.34-.18-8.89l-2.45-1.35c-1.07-.57-1.74-.92-2-1l-1.34-.62a3.85,3.85,0,0,0-1.41-.42,10.66,10.66,0,0,1-1.17-.07,6.29,6.29,0,0,0-1.53.07,16.7,16.7,0,0,0-6.87,2.75,19.3,19.3,0,0,0-5.64,5.71q-4.66,7-1.47,12.75a11,11,0,0,0,3.55,3.8,39.34,39.34,0,0,0,5.22,2.45,80.19,80.19,0,0,0,8.76,3.07A55,55,0,0,0,217,360.25Z"/><path class="cls-1" d="M261.41,284.59q-.74,5.76-3.18,17.9-1.23,6.5-1.72,9.56c2.62-.4,4.41-.65,5.4-.73a64.7,64.7,0,0,1,10.17,1.1q10.55,1.47,17.42,6.38a24.35,24.35,0,0,1,10.11,22.44,35.25,35.25,0,0,1-2.27,9.32,45.42,45.42,0,0,1-14,19,36.68,36.68,0,0,1-12,6.75,33.72,33.72,0,0,1-9.51,1.53,20.06,20.06,0,0,1-9.5-2.39,24.18,24.18,0,0,1-8.34-7.23,18.12,18.12,0,0,1-2.82-6.26c-.41-1.71-.82-3.76-1.22-6.13-.58-3.35-1-6.46-1.23-9.32a175.63,175.63,0,0,1,.49-29.06,183.55,183.55,0,0,1,2.94-18.15q2.34-11.52,2.82-16.68a8.41,8.41,0,0,1,3.13-5.45,7.66,7.66,0,0,1,6-1.72,8.22,8.22,0,0,1,5.52,3.07A7.88,7.88,0,0,1,261.41,284.59Zm-4,74.18c2.12,2.62,5,3.27,8.7,2a21.53,21.53,0,0,0,7-4.05,33.42,33.42,0,0,0,6.26-6.87q5.26-8,3.68-13.61-1.72-5.88-13.37-7.6-6.25-.86-6.87-.86a4.17,4.17,0,0,0-1,.12c-.32.08-1.08.23-2.27.43s-2.59.43-4.23.68a.49.49,0,0,0-.36.12,126,126,0,0,0,.24,15.94,82.09,82.09,0,0,0,1,8.22c.33,1.79.66,3.31,1,4.53A8,8,0,0,0,257.37,358.77Z"/><path class="cls-1" d="M304,319.29l1.23-.86,4.66-3.43a39.87,39.87,0,0,1,5.52-3.19,25.47,25.47,0,0,1,6.68-2.39,27.62,27.62,0,0,1,7.24-.19,25,25,0,0,1,8.4,2.33q14.34,6.87,13.36,26-.12,2.08-.49,6.25l-.61,5.4a21.49,21.49,0,0,0,.24,7.6,2.71,2.71,0,0,0,.62,1.23q2.56,3.68,2.69,3.92a8,8,0,0,1,.86,6.26,8.24,8.24,0,0,1-15.08,2.08l-.25-.49a30.93,30.93,0,0,1-8.09,2.7,29.79,29.79,0,0,1-14.16-1.17,16.46,16.46,0,0,1-9.63-8.15,13.94,13.94,0,0,1-1.65-9.2,20.77,20.77,0,0,1,3.43-8.46,31.6,31.6,0,0,1,6.81-7q6.25-4.79,10.79-5.64a18.1,18.1,0,0,1,7.48.37l.61.12a9.69,9.69,0,0,0-1-4.48,6.07,6.07,0,0,0-3-2.39,8.81,8.81,0,0,0-3.43-1.1,7.92,7.92,0,0,0-3.62.74,24,24,0,0,0-4,2.2q-2,1.35-5.71,4.17a8.32,8.32,0,0,1-11.46-1.71,7.84,7.84,0,0,1-1.53-6.07A8.13,8.13,0,0,1,304,319.29Zm18,36.42q2.08,1.23,6.5.61a2.7,2.7,0,0,0,1.1-.37l1.35-.61c.66-.33,1.43-.69,2.33-1.1,0-1.31,0-2.74.12-4.3a5.34,5.34,0,0,0-1-.12,4.12,4.12,0,0,0-.67-.24c-.29-.08-.53-.15-.74-.19a2.88,2.88,0,0,0-.55-.06l-1-.24a17.66,17.66,0,0,0-3.68,2.45C323.66,353.18,322.4,354.56,322,355.71Z"/><path class="cls-1" d="M382.57,284.59q-.74,5.76-3.19,17.9-1.23,6.5-1.72,9.56c2.62-.4,4.42-.65,5.4-.73a64.7,64.7,0,0,1,10.17,1.1q10.54,1.47,17.42,6.38a24.35,24.35,0,0,1,10.11,22.44,34.86,34.86,0,0,1-2.27,9.32,45.5,45.5,0,0,1-14,19,36.82,36.82,0,0,1-12,6.75,33.71,33.71,0,0,1-9.5,1.53,20.07,20.07,0,0,1-9.51-2.39,24.18,24.18,0,0,1-8.34-7.23,18.12,18.12,0,0,1-2.82-6.26c-.41-1.71-.81-3.76-1.22-6.13-.58-3.35-1-6.46-1.23-9.32a176.73,176.73,0,0,1,.49-29.06,183.55,183.55,0,0,1,2.94-18.15q2.34-11.52,2.82-16.68a8.41,8.41,0,0,1,3.13-5.45,7.66,7.66,0,0,1,6-1.72,8.22,8.22,0,0,1,5.52,3.07A7.93,7.93,0,0,1,382.57,284.59Zm-4.05,74.18q3.19,3.93,8.71,2a21.73,21.73,0,0,0,7-4.05,33.37,33.37,0,0,0,6.25-6.87q5.26-8,3.68-13.61-1.72-5.88-13.37-7.6-6.25-.86-6.86-.86a4.19,4.19,0,0,0-1,.12c-.32.08-1.08.23-2.26.43s-2.6.43-4.23.68a.5.5,0,0,0-.37.12,126,126,0,0,0,.24,15.94c.17,2.53.49,5.27,1,8.22.33,1.79.66,3.31,1,4.53A8,8,0,0,0,378.52,358.77Z"/><path class="cls-1" d="M478.58,324q-3.06,5.64-7.11,15.08-5.64,13.61-7,16.56-1.73,3.68-6.62,12.63a115.41,115.41,0,0,0-5.64,11.28c-1.07,2.69-1.76,4.57-2.09,5.64v.49a8.19,8.19,0,0,1-1.47,4.29c-.25.41-.61.94-1.1,1.59l-4.17,5.28a7.5,7.5,0,0,1-5.34,3.12,8.23,8.23,0,0,1-6.13-1.59,7.65,7.65,0,0,1-3.19-5.4,8.34,8.34,0,0,1,1.66-6.19l3.55-4.66.25-.73a69.51,69.51,0,0,1,2.82-8,126.13,126.13,0,0,1,6.5-13.12l.49-1a8.3,8.3,0,0,1-3.92-3.8q-9.57-18.76-12.76-35.93a8,8,0,0,1,1.29-6.13,7.79,7.79,0,0,1,5.27-3.43,8.1,8.1,0,0,1,6.2,1.29,7.8,7.8,0,0,1,3.43,5.33,105.71,105.71,0,0,0,8.71,26.24l4.17-10.05a156.69,156.69,0,0,1,8-16.93A7.71,7.71,0,0,1,469.2,312a8,8,0,0,1,6.25.74,7.89,7.89,0,0,1,3.93,4.9A8,8,0,0,1,478.58,324Z"/><path class="cls-2" d="M327.2,92.59c-.34,0-.68.14-1,.21A99.3,99.3,0,0,0,269,30.13l-52.77-6.21a99.23,99.23,0,0,0-84,98.91c-.35,0-.69,0-1,.11a16.51,16.51,0,1,0,5,32.63,15.88,15.88,0,0,0,1.72-.36A99.21,99.21,0,0,0,330.5,125.4a17.27,17.27,0,0,0,1.75-.17,16.51,16.51,0,1,0-5.05-32.64Z"/><path class="cls-3" d="M207.09,72.75c.55-.86,1-1.71,1.46-2.55,15.41-4,38-14.09,34.43-37.93-1-7-5.65-18.6-20.81-21.48a31.41,31.41,0,0,1,10.9-.22c16.14,2.48,21,14.48,22,21.7C260.44,68,207.09,72.75,207.09,72.75Z"/><path class="cls-4" d="M208.55,70.2C218.41,51,199,39.43,202.34,26.06c1.45-5.85,9.17-13.17,19.83-15.27,15.16,2.88,19.76,14.45,20.81,21.48C246.54,56.11,224,66.16,208.55,70.2Z"/><path class="cls-5" d="M351.41,64l-5.1.79-.79-5.1a2.84,2.84,0,1,0-5.61.86l.79,5.11-5.11.79a2.84,2.84,0,1,0,.87,5.61l5.1-.79.79,5.1a2.84,2.84,0,0,0,5.62-.87l-.79-5.1,5.1-.79a2.84,2.84,0,0,0-.87-5.61Z"/><path class="cls-5" d="M132.49,212.19l-5.1.79-.79-5.1a2.84,2.84,0,1,0-5.61.87l.79,5.1-5.11.79a2.84,2.84,0,0,0,.87,5.61l5.1-.78.79,5.1a2.84,2.84,0,0,0,5.62-.87l-.79-5.1,5.1-.79a2.84,2.84,0,0,0-.87-5.62Z"/><path class="cls-5" d="M322.84,46.22l-2.92.45-.46-2.92a1.63,1.63,0,1,0-3.22.49l.46,2.93-2.93.45a1.63,1.63,0,1,0,.5,3.22l2.92-.45.46,2.93a1.63,1.63,0,1,0,3.22-.5l-.46-2.93,2.93-.45a1.63,1.63,0,0,0-.5-3.22Z"/><path class="cls-5" d="M127.05,187.36l-2.93.45-.45-2.93a1.63,1.63,0,0,0-3.22.5l.45,2.93-2.92.45a1.63,1.63,0,0,0,.5,3.22l2.92-.45.46,2.92a1.63,1.63,0,0,0,3.22-.49l-.46-2.93,2.93-.45a1.63,1.63,0,1,0-.5-3.22Z"/><path class="cls-6" d="M175.73,104.85a70.72,70.72,0,0,0,11,3.63,31.36,31.36,0,0,0,10.82.71,23,23,0,0,0,10-3.51,37.63,37.63,0,0,0,4.59-3.25c1.5-1.2,2.8-2.64,4.42-3.91a35.35,35.35,0,0,1-2.81,5.38,23.72,23.72,0,0,1-4.16,4.58,22.43,22.43,0,0,1-5.33,3.47,24.74,24.74,0,0,1-6.22,1.65,25.16,25.16,0,0,1-12.4-1.83A26.59,26.59,0,0,1,175.73,104.85Z"/><path class="cls-6" d="M172,113.52a16.14,16.14,0,0,0,5-2.25,9,9,0,0,0,3.24-3.76l2.29,1.36a11,11,0,0,1-4.92,3.58A16.78,16.78,0,0,1,172,113.52Z"/><path class="cls-6" d="M177.87,118.68a13.72,13.72,0,0,0,4.64-3.81,12.75,12.75,0,0,0,2.43-5.16l2.52.87A14.72,14.72,0,0,1,177.87,118.68Z"/><path class="cls-6" d="M284.11,88.07a26.56,26.56,0,0,1-7.38,9.61,25.07,25.07,0,0,1-11.27,5.49,24.23,24.23,0,0,1-6.42.3,21.84,21.84,0,0,1-6.13-1.69c-2-.65-3.65-2-5.36-3.11a35.41,35.41,0,0,1-4.3-4.27c1.93.71,3.6,1.69,5.4,2.39a36.79,36.79,0,0,0,5.35,1.7,22.93,22.93,0,0,0,10.63.32,31.53,31.53,0,0,0,10.09-3.94A69.61,69.61,0,0,0,284.11,88.07Z"/><path class="cls-6" d="M290.31,95.21a16.86,16.86,0,0,1-5.65.67A11.11,11.11,0,0,1,278.89,94l1.77-2a9,9,0,0,0,4.23,2.6A16,16,0,0,0,290.31,95.21Z"/><path class="cls-6" d="M286.25,101.91a14.77,14.77,0,0,1-11.59-4.82l2.14-1.59a12.74,12.74,0,0,0,3.88,4.17A13.73,13.73,0,0,0,286.25,101.91Z"/><path class="cls-7" d="M203.11,144.07a19.2,19.2,0,1,1-21.91-16A19.19,19.19,0,0,1,203.11,144.07Z"/><path class="cls-7" d="M302.9,128.63a19.2,19.2,0,1,1-21.91-16A19.2,19.2,0,0,1,302.9,128.63Z"/><path class="cls-6" d="M269.92,133.76A36.33,36.33,0,0,1,199.08,150c-.23-1-.42-2-.56-3a36.33,36.33,0,0,0,70.59-16.14C269.42,131.77,269.69,132.75,269.92,133.76Z"/></svg>